<svg xmlns="http://www.w3.org/2000/svg" viewBox="0 0 32 32" enable-background="new 0 0 32 32" width="32" height="32"><path d="M23.4 4h-14.8c-2.5 0-4.6 2.1-4.6 4.6v14.7c0 2.6 2.1 4.7 4.6 4.7h14.7c2.6 0 4.6-2.1 4.6-4.6v-14.8c.1-2.5-2-4.6-4.5-4.6zm1.3 2.8h.5v4h-4.1v-4.1l3.6.1zm-12.1 6.7c.8-1.1 2-1.8 3.4-1.8s2.7.7 3.4 1.8c.5.7.8 1.5.8 2.5 0 2.3-1.9 4.2-4.2 4.2s-4.2-1.9-4.2-4.2c0-.9.3-1.8.8-2.5zm13.1 9.9c0 1.3-1 2.3-2.3 2.3h-14.8c-1.3 0-2.3-1-2.3-2.3v-9.8h3.6c-.3.8-.5 1.6-.5 2.5 0 3.6 2.9 6.6 6.6 6.6 3.6 0 6.6-2.9 6.6-6.6 0-.9-.2-1.7-.5-2.5h3.6v9.8z"/></svg>