<svg xmlns="http://www.w3.org/2000/svg" viewBox="0 0 32 32" width="32" height="32"><path d="M27.35 17.673c.1-.5.1-1 .1-1.5 0-6.1-4.9-11-11-11-.6 0-1.2 0-1.8.1-1-.7-2.3-1.1-3.6-1.1-3.6 0-6.6 3-6.6 6.6 0 1.3.4 2.6 1.1 3.6-.1.6-.1 1.1-.1 1.7 0 6.1 4.9 11 11 11 .7 0 1.4-.1 2-.2 1 .6 2.2 1 3.5 1 3.6 0 6.6-3 6.6-6.6 0-1.3-.4-2.6-1.2-3.6zm-9.8 6.6c-3.5.2-5.1-.6-6.6-2-1.7-1.6-1-3.4.4-3.5 1.4-.1 2.2 1.6 2.9 2 .7.5 3.5 1.5 4.9-.2 1.6-1.8-1.1-2.8-3-3.1-2.8-.4-6.3-1.9-6-4.9.3-3 2.5-4.5 4.9-4.7 3-.3 4.9.5 6.5 1.8 1.8 1.5.8 3.2-.3 3.4-1.1.1-2.4-2.5-4.9-2.6-2.6 0-4.3 2.7-1.1 3.5 3.2.8 6.6 1.1 7.8 4 1.1 3-2 6.1-5.5 6.3z"/></svg>