<svg xmlns="http://www.w3.org/2000/svg"><symbol viewBox="0 0 32 32" id="icon_instagram"><path d="M23.4 4h-14.8c-2.5 0-4.6 2.1-4.6 4.6v14.7c0 2.6 2.1 4.7 4.6 4.7h14.7c2.6 0 4.6-2.1 4.6-4.6v-14.8c.1-2.5-2-4.6-4.5-4.6zm1.3 2.8h.5v4h-4.1v-4.1l3.6.1zm-12.1 6.7c.8-1.1 2-1.8 3.4-1.8s2.7.7 3.4 1.8c.5.7.8 1.5.8 2.5 0 2.3-1.9 4.2-4.2 4.2s-4.2-1.9-4.2-4.2c0-.9.3-1.8.8-2.5zm13.1 9.9c0 1.3-1 2.3-2.3 2.3h-14.8c-1.3 0-2.3-1-2.3-2.3v-9.8h3.6c-.3.8-.5 1.6-.5 2.5 0 3.6 2.9 6.6 6.6 6.6 3.6 0 6.6-2.9 6.6-6.6 0-.9-.2-1.7-.5-2.5h3.6v9.8z"/></symbol><symbol viewBox="0 0 32 32" id="icon_skype"><path d="M27.35 17.673c.1-.5.1-1 .1-1.5 0-6.1-4.9-11-11-11-.6 0-1.2 0-1.8.1-1-.7-2.3-1.1-3.6-1.1-3.6 0-6.6 3-6.6 6.6 0 1.3.4 2.6 1.1 3.6-.1.6-.1 1.1-.1 1.7 0 6.1 4.9 11 11 11 .7 0 1.4-.1 2-.2 1 .6 2.2 1 3.5 1 3.6 0 6.6-3 6.6-6.6 0-1.3-.4-2.6-1.2-3.6zm-9.8 6.6c-3.5.2-5.1-.6-6.6-2-1.7-1.6-1-3.4.4-3.5 1.4-.1 2.2 1.6 2.9 2 .7.5 3.5 1.5 4.9-.2 1.6-1.8-1.1-2.8-3-3.1-2.8-.4-6.3-1.9-6-4.9.3-3 2.5-4.5 4.9-4.7 3-.3 4.9.5 6.5 1.8 1.8 1.5.8 3.2-.3 3.4-1.1.1-2.4-2.5-4.9-2.6-2.6 0-4.3 2.7-1.1 3.5 3.2.8 6.6 1.1 7.8 4 1.1 3-2 6.1-5.5 6.3z"/></symbol><symbol viewBox="0 0 32 32" id="icon_twitter"><path d="M29 9.3c-.9.4-1.8.7-2.8.8 1-.6 1.8-1.6 2.2-2.7-1 .6-2 1-3.1 1.2-1-1-2.3-1.6-3.7-1.6-2.7 0-4.9 2.2-4.9 4.9 0 .4 0 .8.1 1.1-4.1-.2-7.7-2.2-10.1-5.1-.5.7-.7 1.6-.7 2.5 0 1.7.9 3.2 2.2 4.1-.8 0-1.6-.2-2.2-.6v.1c0 2.4 1.7 4.4 4 4.8-.4.1-.8.2-1.3.2-.3 0-.6 0-.9-.1.6 2 2.4 3.4 4.6 3.4-1.7 1.3-3.8 2.1-6.1 2.1-.4 0-.8 0-1.2-.1 2.2 1.4 4.8 2.2 7.5 2.2 9.1 0 14-7.5 14-14v-.6c.9-.7 1.7-1.6 2.4-2.6"/></symbol></svg>